<svg xmlns="http://www.w3.org/2000/svg" width="103" height="35" viewBox="0 0 103 35">
  <g>
    <path fill="rgb(255,255,255)" fill-rule="evenodd" d="M0 0h8.1168518c8.39672852 0 13.99456788 4.375 13.99456788 14.58337402 0 10.20825196-5.59783936 14.875-13.71469116 14.875H0V0zm23.79077148 0h6.71737671l.83969117 15.75v7.29162598h.2798767c.27990723-2.625.83969117-4.95825196 1.3994751-7.29162598l1.95922852-8.16662598h4.19836426L41.14404297 15.75c.55978393 2.33337402 1.11956787 4.66662598 1.39944458 7.29162598h.2798767c0-2.625 0-4.95825196.27990723-7.29162598L43.94293213 0h6.4375L46.7418518 29.45837402h-6.99728394l-1.95922851-9.04174804c-.27990723-1.75-.83969117-3.79162598-.83969117-5.54162598-.2798767 1.75-.55975341 3.79162598-.83966064 5.54162598l-1.6793518 9.04174804h-6.71737672L23.79077148 0zm36.10595704 0h-6.99728394l.55978394 29.45837402h5.31793212v-9.04174804c0-3.5-.55978393-10.5-.83966064-13.70825196l1.95922852 7.875 2.23913574 7h3.07879638l2.23913575-7 2.51901245-7.875c-.27987671 3.20825196-.83966065 10.5-.83966065 13.70825196v9.04174804h5.59780884V0H67.7336731l-2.79888916 10.5-1.11956788 4.08337402h-.27990722L62.69564819 10.5 59.89672852 0zM7.83694458 24.20837402c4.47827148 0 7.55706787-2.625 7.55706787-9.625S12.31521606 5.25 7.83694458 5.25H6.71737671v18.95837402h1.11956787z"/>
    <path fill="rgb(255,0,0)" fill-rule="evenodd" d="M82.84782609 34.99999209H103v-5.54166815H82.84782609v5.54166815z"/>
  </g>
</svg>
