<svg xmlns="http://www.w3.org/2000/svg" width="74.468" height="25" viewBox="0 0 74.468 25">
  <g>
    <path fill="rgb(255,0,0)" fill-rule="evenodd" d="M0 0h5.8684082c6.07077027 0 10.11795044 3.125 10.11795044 10.41662598 0 7.29174804-4.04718017 10.625-9.91558838 10.625H0V0zm17.20051575 0h4.85661316l.60708618 11.25v5.20837402h.2023468c.20236206-1.875.60708618-3.54174804 1.01179504-5.20837402l1.41651917-5.83331299h3.03538513L29.7467804 11.25c.40470886 1.66662598.80943298 3.33337402 1.01179504 5.20837402h.2023468c0-1.875 0-3.54174804.20236206-5.20837402L31.77037048 0h4.6542511l-2.63067627 21.04162598h-5.05895996l-1.41651916-6.45825196c-.20236206-1.25-.60707093-2.70837402-.60707093-3.95837402-.20236206 1.25-.40472412 2.70837402-.60708618 3.95837402l-1.2141571 6.45825196h-4.85661316L17.20051575 0zm26.10430908 0H38.2458496l.40472412 21.04162598h3.84481812v-6.45825196c0-2.5-.40472413-7.50006103-.60708619-9.791687l1.41651917 5.62493896 1.61886597 5h2.22595214l1.61888123-5L50.5897522 4.791687c-.20236206 2.29162598-.60708618 7.49993897-.60708618 9.79168701v6.45825196h4.04718017V0h-5.05897522l-2.02359009 7.5-.80943298 2.91662598h-.20236206L45.32841492 7.5 43.30482482 0zM5.66604614 17.29162598c3.2377472 0 5.46369934-1.875 5.46369934-6.875C11.12974548 5.416687 8.90379333 3.75 5.66604614 3.75h-.80943298v13.54162598h.80943298z"/>
    <path fill="rgb(255,0,0)" fill-rule="evenodd" d="M59.89826253 25h14.56984765v-3.95833529H59.89826253V25z"/>
  </g>
</svg>
