<svg xmlns="http://www.w3.org/2000/svg" viewBox="0 0 1920 1080"><defs><style>.cls-1{fill:red;}.cls-2,.cls-3{fill:#fff;}.cls-3{fill-rule:evenodd;}</style></defs><g id="insta"><path class="cls-1" d="M960,1040h0c-276.12,0-500-223.84-500-500h0C460,263.88,683.88,40,960,40h0c276.16,0,500,223.88,500,500h0C1460,816.16,1236.16,1040,960,1040Z"/><circle class="cls-2" cx="959.19" cy="540.81" r="112.39"/><path class="cls-3" d="M1243.29,409.69a153.05,153.05,0,0,0-153-153H829.69a153.05,153.05,0,0,0-153,153V670.31a153.05,153.05,0,0,0,153,153h260.62a153.05,153.05,0,0,0,153-153Zm-284.1-3.75A134.87,134.87,0,1,1,824.33,540.81,134.94,134.94,0,0,1,959.19,405.94Zm156.67-39.36A19.43,19.43,0,1,1,1096.44,386,19.44,19.44,0,0,1,1115.86,366.58Z"/><path class="cls-3" d="M1243.29,409.69a153.05,153.05,0,0,0-153-153H829.69a153.05,153.05,0,0,0-153,153V670.31a153.05,153.05,0,0,0,153,153h260.62a153.05,153.05,0,0,0,153-153Zm-17.71,0V670.31a135.33,135.33,0,0,1-135.27,135.27H829.69A135.33,135.33,0,0,1,694.42,670.31V409.69A135.33,135.33,0,0,1,829.69,274.42h260.62A135.33,135.33,0,0,1,1225.58,409.69ZM959.19,388.24a152.57,152.57,0,1,0,152.57,152.57A152.64,152.64,0,0,0,959.19,388.24Zm0,17.7A134.87,134.87,0,1,1,824.33,540.81,134.94,134.94,0,0,1,959.19,405.94Zm156.67-57.07A37.13,37.13,0,1,0,1153,386,37.15,37.15,0,0,0,1115.86,348.87Zm0,17.71A19.43,19.43,0,1,1,1096.44,386,19.44,19.44,0,0,1,1115.86,366.58Z"/></g></svg>