<svg xmlns="http://www.w3.org/2000/svg" viewBox="0 0 1920 1080"><defs><style>.cls-1{fill:red;}.cls-2{fill:#fff;}</style></defs><g id="jour_nuit" data-name="jour/nuit"><path class="cls-1" d="M960,1040h0c-276.12,0-500-223.84-500-500h0C460,263.88,683.88,40,960,40h0c276.16,0,500,223.88,500,500h0C1460,816.16,1236.16,1040,960,1040Z"/><g id="Filled_Icons" data-name="Filled Icons"><path class="cls-2" d="M1231,527.68H1119.4a159.53,159.53,0,0,0-38.1-91.56l79-79a12.32,12.32,0,1,0-17.42-17.42L1064,418.63c-27.36-23.5-58.5-35.57-91.63-38V269a12.32,12.32,0,0,0-24.64,0V380.55c-37.24,3.64-67.34,17.63-91.44,38.28L777.1,339.68a12.32,12.32,0,1,0-17.42,17.42l79.15,79.14a158.8,158.8,0,0,0-37.91,91.44H689a12.32,12.32,0,1,0,0,24.64H800.5A159.26,159.26,0,0,0,838.56,644l-78.88,78.9a12.32,12.32,0,0,0,17.42,17.42L856,661.42a159.22,159.22,0,0,0,91.69,38.08V811a12.32,12.32,0,1,0,24.63,0V699.18a159.1,159.1,0,0,0,91.59-37.88l79,79a12.27,12.27,0,0,0,8.69,3.6,12.31,12.31,0,0,0,8.73-21l-79-78.95c23.58-27.39,35-56.26,37.82-91.63H1231a12.32,12.32,0,0,0,0-24.64Zm-143.61,58.38c-87.21,19.22-164.31-48-164.31-132.28a133.43,133.43,0,0,1,8.13-46.06,134.79,134.79,0,0,1,124.89,36.68h0a137.63,137.63,0,0,1,39.41,95.6A133.61,133.61,0,0,1,1087.36,586.06Z"/></g></g></svg>