<svg id="mail" xmlns="http://www.w3.org/2000/svg" viewBox="0 0 1920 1080"><defs><style>.cls-1{fill:red;}.cls-2{fill:#fff;}</style></defs><path class="cls-1" d="M960,1040h0c-276.12,0-500-223.84-500-500h0C460,263.88,683.88,40,960,40h0c276.16,0,500,223.88,500,500h0C1460,816.16,1236.16,1040,960,1040Z"/><path class="cls-2" d="M1136.18,775c2.26,5.3.74,9.81-4.52,12.07,0,0-64.13,36.2-171.27,36.2-150.89,0-267.09-113.92-267.09-268.58,0-163.73,134.3-298,292.74-298,153.14,0,240.66,94.3,240.66,205.22,0,142.59-91.3,207.47-166.72,207.47h-15.1c-21.87,0-32.46-6.77-29.42-28.68l2.26-18.87c0,.74-27.91,49.77-78.46,49.77-53.56,0-108.66-33.93-108.66-128.27,0-97.33,70.17-157.69,147.11-157.69,44.52,0,61.88,22.65,67.91,34.71l3-18.87c.75-5.29,4.52-8.29,9.81-8.29h22.65c6,0,8.29,3.77,7.55,9.06L1060,624.84h16.58c48.3,0,101.85-52.81,101.85-161.46,0-92.05-74.69-156.18-192.37-156.18-139.57,0-239.93,119.2-239.93,247.48,0,129,95.81,217.28,214.28,217.28,102.59,0,150.88-27.91,150.88-27.91,5.3-3,10.55-1.52,12.81,4.52Zm-98.85-298.77c-1.52-12.06-13.58-50.55-58.84-50.55-49.78,0-102.59,43-102.59,116.17,0,61.88,37.71,85.27,73.94,85.27,38.49,0,74.68-44.52,77.72-73.17Z"/></svg>