<svg xmlns="http://www.w3.org/2000/svg" viewBox="0 0 1920 1080"><defs><style>.cls-1{fill:red;}.cls-2{fill:#fff;fill-rule:evenodd;}</style></defs><g id="twitter"><path class="cls-1" d="M960,1040h0c-276.12,0-500-223.84-500-500h0C460,263.88,683.88,40,960,40h0c276.16,0,500,223.88,500,500h0C1460,816.16,1236.16,1040,960,1040Z"/><path class="cls-2" d="M1223.92,412.3c0,.5,0,1-.05,1.51q.09,4.14.09,8.31c0,221.41-179.76,401.17-401.17,401.17C734.9,823.29,677.56,786,643.42,745c19.07,2.88,39.62.63,59.45-.62,51.11-3.2,98.56-16.62,140.65-38.65a185.74,185.74,0,0,1-147.65-94.16,184.53,184.53,0,0,0,67.79,15.62A190.67,190.67,0,0,1,652.74,476.07a188.92,188.92,0,0,0,47.66,18.05A197.29,197.29,0,0,1,668,292l.09.35.31,1.25.32,1.24.11.4c.37,1.41.75,2.81,1.16,4.21l.09.33.19.64,0,.09,0,.06.12.44.15.48,0,.08,0,.1.17.56.14.48c.42,1.36.86,2.73,1.3,4.08l.11.31.21.63,0,.12,0,.07.13.39.17.47,0,.11,0,.11.18.51.12.36,0,.06,0,.12c.47,1.33.95,2.65,1.44,4l.11.29.24.62,0,.14,0,.07.13.35.19.47.05.13,0,.13.18.46.14.35,0,.08.06.15.23.6.14.35c.39,1,.79,2,1.2,2.93l.11.25.26.61.07.17,0,.07.13.32.21.46.06.15.06.14.18.41.15.35,0,.1.07.18.24.53.11.25,0,0,.06.15,1.29,2.82.1.21.29.6.08.19,0,.07.13.28.22.46.09.18.06.13.18.38.17.35.06.12.09.18.23.49.13.25,0,.06.1.19c.57,1.17,1.16,2.34,1.76,3.49l.11.21,0,.07.13.25.23.45.11.2.07.13.18.34.18.34.08.15.1.19.24.44.13.25.05.08.12.22.3.56.16.29,1.4,2.51.13.23,0,.07.13.22.25.44.13.22.08.13.17.3.2.34.1.17.11.2.23.39.15.25.06.1.15.24.29.5.1.17,0,0,.13.21c.46.78.93,1.55,1.41,2.32l.16.26,0,.06.12.19.27.43.15.24.08.14.17.27.21.33.12.18.13.2.22.36.16.24.08.12.16.26.29.44.11.17,0,.05.18.27c.47.73,1,1.45,1.44,2.17l.19.29,0,.05.11.17.28.42.18.26.09.13.16.24.23.33.14.2.13.19.22.32.18.25.09.14.18.25.28.4.12.17,0,.07.21.3c.49.69,1,1.37,1.47,2l.23.32,0,.05.11.15.3.4.2.28.09.12.16.22.24.32.16.22.15.19.21.28.18.25.12.15.19.26.28.36.12.17.07.08.24.32.34.44.08.11.25.32.44.57.38.48.27.35,0,.05.1.12.31.39.23.3.1.11.15.2.25.31.19.23.15.19.2.26.2.24.14.16.2.26.27.32.14.17.08.1.26.32.32.39.12.14.33.39.37.45.37.43.33.4.12.14.32.37.28.32.09.11.14.17.26.3.22.25.15.18.2.23.21.24.16.18.21.24.26.3.15.16.1.12.28.32.32.35.09.1,0,0,.37.41.35.38.32.36.43.48.11.11.32.35.31.34.09.1.14.15.27.29.25.27.16.16.19.21.22.23.18.2.22.23.25.27.16.17.12.13.3.3.3.32.1.11.06.06.4.41.33.34.8.83.09.08.32.33.36.37.09.08.13.13.28.29.28.28.16.15.18.19.23.22.21.21.23.22.24.24.17.17.15.14.3.3.3.29.11.1.07.08.42.4.32.3,0,.05.82.78,0,.06.32.29.42.4.08.07.11.11.3.27.31.3.16.14.17.17.24.22.24.22.23.2.24.22.18.17.16.15.32.28.28.26.13.12.09.08.43.38.31.28.06.05.86.77,0,0,.29.26.49.43.08.07.1.09.3.26.35.3.16.13.16.15.26.21.26.23.23.2.23.19.19.17.19.16.32.26.28.24.13.11.12.1.43.36.31.26.11.09.88.73.26.21.57.46.07.06.1.08.3.24.39.32.15.12.16.13.26.21.3.23.22.18.22.18.21.16.21.17.32.25.28.22.14.11.14.11.43.33.3.24.08.06.06,0,.72.56.17.12.18.14.7.53.06.05.08.06.31.23.44.33.14.11.15.11.27.2.33.24.23.17.2.15.22.17.24.17.32.23.27.2.16.11.15.11.44.32.3.22.09.06.08.06.66.47.22.16h0l1,.68.07.05.3.21.49.34.13.09.14.1.28.2.36.24.23.16.2.14.23.15.27.18.31.21.26.18.17.12.18.11.43.29.3.2.1.07.1.06.64.43.24.16,0,0,1,.65.06,0,.29.19.54.35.13.08.13.08.29.19.4.25.21.14.2.12.24.15.29.19.32.19.25.16.18.12.2.12.43.27.29.18.12.07.11.07.62.38.27.16,0,0,1,.62,0,0,.27.17.61.36.12.07.12.07.3.18.43.25.21.13.18.1.26.15.32.19.31.18.24.14.2.11.22.13.42.24.3.17.12.07.14.08.59.33.28.16.06,0,1.06.59,0,0,.23.13.7.38.11.06.11.06.29.16.48.26.2.11.18.1.26.14.35.18.3.16.24.13.21.11.25.13.41.22.29.15.14.07.16.09.57.29.29.16.07,0,1.09.56,1,.5.1.05.1.05.3.15.51.26.2.09.16.08.28.14.38.19.29.14.23.11.22.11.28.13.4.2.29.14.15.07.18.09.56.26.3.14.08,0,.08,0,1,.48,1,.48.09,0,.08,0,.3.14.56.26.19.08.15.07.29.13.41.19.28.12.23.1.23.11.3.13.39.17.29.13.16.07.2.08.54.24.31.13.09,0,.11.05,1,.44,1.14.48.07,0,.3.12.61.25.17.07.15.06.3.12.44.18.27.12.21.08.25.1.33.13.38.15.28.12.18.07.22.08.53.21.31.12.1,0,.13.05.79.31.22.08h0l1.16.44.06,0,.28.11.67.25.16.06.13.05.31.11.48.18.26.09.2.08.27.09.35.13.37.13.27.1.19.07.25.08.51.18.31.11.12,0,.14.06.75.25.26.09,0,0,1.18.39,0,0,.26.09.74.25.15,0,.12,0,.32.1.51.18.25.08.19.06.28.09.38.12.36.11.26.09.21.07.27.08.49.15.31.1.14,0,.16.05.7.22.29.09h.05l1.21.36,0,0,.22.06.82.24.14,0,.11,0,.32.1.55.16.24.06.18.06.29.08.4.11.35.1.26.07.23.06.28.08.48.14.31.08.15,0,.18,0,.67.18.31.08.07,0,1.22.32,1.11.29.12,0,.1,0,.32.09.59.14.23.06.17,0,.3.08.44.1.33.08.25.06.24.06.31.07.46.12.31.07.17,0,.2,0,.64.14.32.08.08,0,1.24.28,1.15.25.1,0,.09,0,.32.07.63.13.21,0,.17,0,.31.07.46.09.32.07.25,0,.25.05.33.07.45.09.3.06.18,0,.23.05.61.12.33.06.09,0,.12,0,1.15.22,1.26.23h.07l.31.05.7.12.19,0,.15,0,.32,0,.5.09.3.05.23,0,.27,0,.37.06.42.07.3.05.2,0,.24,0,.59.09.33.06h.12l.13,0,.9.13.22,0h0l1.28.19h.06l.3,0,.75.11.18,0,.14,0,.33,0,.53.07.29,0,.22,0,.28,0,.39.05.41.05.3,0,.2,0,.27,0,.56.06.34,0,.13,0,.16,0,.82.09.27,0h0l1.29.14h.05l.27,0,.82.09.16,0h.14l.33,0,.56.06.28,0,.21,0,.3,0,.41,0,.4,0,.28,0,.23,0,.29,0,.53,0,.34,0,.15,0h.17l.77.06.31,0h.06l1.3.1H866l.91.07h.26l.35,0,.6,0,.25,0h.2l.31,0H869c1.1.07,2.2.12,3.31.17h.23l1.5.06h.13l1.63.05H876l1.31,0h.3l1.54,0h7.6l.71,0h.65l.76,0h.6l.8,0h.56l.54,0h.68l.67,0h.34l.5,0,.5,0,.34,0h.06l.53,0h.07l.33,0,.46,0h0l.5,0h.34l.49,0,.56,0h.28l.54,0h.16l.4,0,.8-.06.26,0,.32,0,.75-.06.39,0,.25,0,.7,0,.53-.05h.17L904,451l.73-.07h.1l.49-.05,1.32-.13h.06l1.3-.13.45,0h.09l.73-.08.62-.07.17,0,.52-.06.69-.09.26,0,.37,0,.74-.09.32-.05.26,0,.78-.1.4-.06.14,0,.53-.07h.11l.16,0,.4-.06.63-.09.22,0,.11,0,.5-.07.47-.07.33-.05h.06l.52-.08h.06l.32-.05,1-.15.12,0,.21,0,.49-.08.52-.09.18,0h.1l.53-.09.15,0,.38-.06.78-.14.25,0,.3-.06.74-.13.38-.07.22,0L926,448l.52-.1.15,0,.61-.11.72-.14.08,0,.48-.1,1.26-.25.15,0,1.17-.24.45-.1.77-.16.61-.14.16,0,.49-.11.68-.15.24-.05.35-.08.73-.17.31-.07.23-.06.77-.18.38-.09.12,0,.54-.12.1,0,.14,0,1-.25.21,0,.09,0,.95-.24.32-.09h0l.53-.14h.05l.29-.08,1-.25.11,0,.18-.05.56-.14.44-.12.16-.05.08,0,.55-.15.13,0,.34-.1.78-.21.23-.07.27-.08.4-.11a163.55,163.55,0,0,1-3.69-34.64q0-4.75.27-9.42l0-.58.07-1,0-.59.05-.62,0-.56.08-1,0-.57.05-.63.06-.56.09-1,.06-.56.07-.63,0-.55.12-1,.07-.54.08-.65.06-.53.14-1,.07-.53.09-.66.08-.52.15-1,.08-.52.1-.67.08-.5.17-1,.09-.51.12-.68.08-.49.19-1,.09-.49.14-.69.09-.48.2-1,.1-.47.15-.69.1-.47.22-1,.1-.45.16-.71.11-.46.24-1,.1-.45.18-.71.11-.45.26-1,.11-.43.19-.72.11-.43.28-1,.12-.41.2-.73.12-.43.29-1,.12-.41.22-.73.13-.42.31-1,.12-.39.24-.74.12-.41.33-1,.13-.37.25-.75.13-.4.35-1,.13-.35.26-.76.14-.38.36-1,.13-.35.28-.76.14-.37.39-1,.13-.33.3-.77.14-.36.4-1,.13-.32.32-.77.15-.35.41-1,.13-.29.34-.78.15-.35.44-1,.12-.29.36-.78.15-.33.45-1,.13-.26.37-.8.15-.32.48-1,.12-.25.4-.8.15-.31.49-1,.12-.23.42-.8.15-.3.51-1,.11-.22.44-.81.16-.29.52-1,.12-.21.45-.81.16-.28.55-1,.1-.19.48-.82.15-.27.57-1,.1-.17.5-.83.16-.26.58-.95.09-.15.53-.84.15-.24.61-.95.08-.13.55-.85.15-.24.62-.94.08-.11.57-.85.16-.23.64-.93.06-.1.6-.85.15-.22.66-.93.06-.08.62-.86.15-.21.68-.92,0-.07.64-.86.15-.2.7-.92,0,0,.68-.87.15-.19.71-.91,0,0,.71-.88.14-.18.74-.9.73-.88.14-.17.76-.9.75-.87.14-.16.77-.88.77-.87.14-.15.78-.87.79-.85.13-.14.81-.86.8-.84.13-.14.82-.84.82-.84.12-.12.84-.83.84-.82.12-.12.84-.81.86-.81.11-.11.87-.8.88-.8.1-.1.88-.79.9-.79.1-.09.9-.78.91-.77.09-.08.91-.76.93-.76.09-.08.93-.75.94-.75.08-.06.95-.73,1-.74.07-.05,1-.73,1-.72.06,0,1-.71,1-.7.05,0,1-.7,1-.69,0,0,1-.67,1-.68,0,0,1-.67,1-.66h0l1.05-.65,1.06-.64,0,0,1.06-.62,1.07-.63h0l1.07-.61,1.09-.61c1.09-.6,2.2-1.19,3.3-1.76h0a131.11,131.11,0,0,1,60.39-14.74c44,0,83.21,21.88,109,56.09,27.09-2.07,50.7-18,64.93-41.21a92.33,92.33,0,0,1,1.74,17.84c0,31.72-16.13,59.21-39.6,72.49,2.94.29,5.93.44,8.94.44a87.81,87.81,0,0,0,48-14.11C1272.81,380.22,1251.44,405.9,1223.92,412.3Z"/></g></svg>